# xmcd CD database file
#
# Track frame offsets:
#	150
#	18456
#	30229
#	46990
#	64459
#	77876
#	93714
#	107191
#	121969
#	135695
#	151778
#	161044
#	173345
#
# Disc length: 2743 seconds
#
# Revision: 1
# Processed by: cddbd v1.5.2PL0 Copyright (c) Steve Scherf et al.
# Submitted via: CDex 1.70beta2
#
DISCID=a20ab50d
DTITLE=Nina Joyeux - Winter Without Snow
DYEAR=2010
DGENRE=Blues
TTITLE0=Kiss Me
TTITLE1=Simple Life
TTITLE2=Winter Without Snow
TTITLE3=Castles in Spain
TTITLE4=Can't You See
TTITLE5=Alone
TTITLE6=Time
TTITLE7=World Map
TTITLE8=True Woman
TTITLE9=C'est toi
TTITLE10=Closer
TTITLE11=Wrong to Right
TTITLE12=PrivilegedChild's Guilt
EXTD=YEAR: 2010
EXTT0=
EXTT1=
EXTT2=
EXTT3=
EXTT4=
EXTT5=
EXTT6=
EXTT7=
EXTT8=
EXTT9=
EXTT10=
EXTT11=
EXTT12=
PLAYORDER=
